<?xml version="1.0" standalone="no"?>
<!DOCTYPE svg PUBLIC "-//W3C//DTD SVG 20010904//EN"
 "http://www.w3.org/TR/2001/REC-SVG-20010904/DTD/svg10.dtd">
<svg version="1.0" xmlns="http://www.w3.org/2000/svg"
 width="480.000000pt" height="480.000000pt" viewBox="0 0 480.000000 480.000000"
 preserveAspectRatio="xMidYMid meet">
<metadata>
Created by potrace 1.11, written by Peter Selinger 2001-2013
</metadata>
<g transform="translate(0.000000,480.000000) scale(0.100000,-0.100000)"
fill="#000000" stroke="none">
<path d="M155 4080 c-11 -4 -25 -5 -32 -3 -13 5 0 -41 57 -202 16 -44 30 -89
32 -100 2 -11 5 -22 8 -25 14 -13 51 -140 44 -151 -4 -7 -3 -9 3 -6 7 5 29
-44 48 -113 1 -3 5 -12 8 -20 20 -47 99 -288 101 -305 0 -11 4 -22 8 -25 10
-8 68 -183 62 -191 -2 -4 1 -9 7 -11 7 -2 12 -18 13 -35 0 -17 3 -29 5 -27 4
3 23 -42 35 -81 2 -5 5 -17 8 -25 33 -91 38 -111 32 -121 -4 -7 -3 -9 3 -6 12
8 47 -99 37 -115 -4 -7 -3 -8 4 -4 11 7 16 -7 15 -41 -1 -7 3 -10 8 -7 5 3 10
-2 10 -10 2 -18 3 -25 12 -46 31 -80 57 -172 51 -181 -4 -7 -3 -9 3 -6 7 5 62
-142 144 -393 7 -19 15 -44 20 -55 33 -88 39 -107 34 -115 -3 -4 -1 -10 3 -12
11 -4 104 -279 98 -286 -3 -2 1 -11 9 -19 8 -7 17 -30 21 -51 4 -20 10 -39 13
-42 5 -4 74 -201 77 -220 0 -3 4 -14 8 -25 20 -53 34 -90 34 -95 0 -3 6 -18
12 -35 7 -16 13 -42 14 -57 0 -14 4 -24 8 -21 4 2 13 -16 20 -41 11 -40 15
-46 38 -44 14 1 31 -1 38 -6 7 -4 12 -3 12 1 0 5 16 8 35 7 19 -1 34 1 33 5 0
3 1 9 2 14 3 8 3 10 14 57 5 19 13 38 19 41 5 4 11 23 13 43 4 44 12 59 27 49
9 -5 9 -3 0 8 -9 11 -8 24 7 57 11 23 16 42 13 42 -3 0 0 7 7 15 7 8 10 15 7
15 -3 0 7 37 22 83 16 45 43 131 62 190 25 82 36 106 47 102 11 -4 12 -2 4 8
-8 10 -3 39 22 115 18 56 35 100 37 98 2 -2 5 8 6 23 1 15 7 40 14 56 7 17 13
35 15 42 4 21 36 118 43 128 7 12 8 18 10 46 1 12 5 17 13 13 6 -4 8 -3 5 3
-10 15 85 303 96 296 6 -3 7 -1 3 6 -4 6 1 35 10 64 10 28 19 59 20 67 2 8 8
16 14 18 5 2 8 8 5 12 -4 7 30 124 60 208 2 7 4 13 5 15 0 1 14 43 31 92 36
105 34 100 44 142 4 19 12 30 18 26 6 -3 7 -1 3 6 -4 6 3 42 15 79 13 37 24
69 24 72 3 18 29 87 35 94 5 5 6 15 3 24 -5 11 -3 13 7 7 8 -5 11 -4 6 3 -10
16 4 63 17 55 5 -3 7 -2 4 4 -8 13 34 153 45 147 4 -3 5 1 2 9 -3 8 2 22 11
31 9 9 11 16 5 16 -6 0 -8 5 -3 13 4 6 8 17 9 24 6 38 50 150 63 161 9 8 10
11 4 7 -15 -7 -18 21 -3 30 6 4 7 11 4 17 -5 7 -2 8 6 3 9 -5 10 -2 6 11 -3
11 -1 26 4 34 8 12 10 12 15 -2 4 -10 3 -22 -1 -29 -4 -7 -3 -9 3 -6 11 7 35
-61 27 -75 -3 -4 0 -8 7 -8 6 0 9 -8 6 -20 -3 -11 -2 -18 3 -15 10 6 31 -75
23 -88 -3 -6 -1 -7 4 -4 12 8 26 -50 16 -66 -4 -6 -1 -7 7 -2 10 6 12 3 8 -13
-4 -12 -2 -20 3 -17 4 3 11 -7 14 -22 4 -15 11 -36 16 -46 5 -10 7 -22 4 -27
-4 -6 -2 -10 3 -10 9 0 11 -8 15 -54 1 -13 5 -22 8 -20 10 6 31 -75 23 -88 -4
-6 -3 -9 2 -5 5 3 29 -56 53 -131 24 -75 48 -147 53 -159 6 -12 8 -29 4 -38
-3 -9 -2 -14 2 -11 7 4 36 -70 47 -119 1 -5 5 -17 8 -25 34 -86 107 -325 103
-336 -3 -8 -2 -13 2 -10 7 4 46 -100 57 -148 1 -6 7 -24 14 -40 6 -16 13 -36
15 -45 2 -9 6 -23 9 -31 29 -72 97 -302 91 -311 -4 -7 -3 -9 3 -6 12 8 47 -99
37 -116 -4 -6 -3 -9 1 -5 9 9 47 -90 40 -103 -3 -4 -2 -9 3 -11 6 -2 54 -136
57 -158 1 -3 7 -22 14 -42 7 -21 9 -43 5 -50 -4 -7 -3 -9 2 -5 10 10 126 -341
117 -356 -3 -6 -1 -7 5 -3 8 4 12 -1 13 -13 2 -29 3 -34 12 -48 4 -7 15 -35
23 -62 l14 -49 70 1 c68 0 69 1 75 29 4 15 11 28 16 28 6 0 8 4 4 9 -3 6 4 36
15 68 12 32 28 78 36 103 8 25 18 52 21 60 8 19 10 27 12 41 0 5 4 8 9 6 4 -3
8 8 8 25 1 17 5 33 10 37 5 3 9 12 10 19 3 39 5 43 16 36 7 -4 8 -3 4 4 -8 13
53 205 66 210 5 2 6 7 3 12 -3 4 4 29 15 54 10 25 16 46 13 46 -4 0 -2 5 5 12
7 7 12 18 12 24 0 7 5 25 12 41 6 15 13 37 15 48 2 11 8 22 13 23 6 2 8 7 5
12 -8 12 90 281 100 273 4 -5 5 -3 1 4 -6 11 41 172 53 183 3 3 7 12 8 20 3
29 108 325 118 332 5 4 7 8 3 8 -10 0 142 444 153 448 5 2 7 7 4 12 -7 12 47
163 65 178 8 8 9 11 3 7 -17 -8 -16 -5 4 41 9 22 17 41 18 44 14 58 18 69 26
65 5 -4 6 0 3 8 -2 7 1 27 7 43 15 36 13 30 29 86 8 26 17 45 21 42 4 -2 5 4
2 14 -2 11 1 25 9 33 7 8 14 27 16 43 2 16 10 39 19 52 8 13 13 24 10 24 -3 0
30 104 74 231 43 127 79 233 79 236 0 2 -6 1 -12 -3 -18 -11 -81 -11 -95 0 -9
5 -13 4 -13 -5 0 -12 -2 -12 -9 0 -6 9 -11 10 -15 2 -4 -6 -11 -9 -15 -6 -5 2
-25 -46 -46 -108 -33 -100 -44 -134 -63 -187 -3 -8 -6 -19 -7 -25 0 -5 -7 -9
-15 -7 -9 2 -11 -1 -4 -10 12 -15 -77 -284 -89 -271 -5 4 -6 1 -3 -7 6 -16
-107 -364 -115 -356 -3 3 -5 -3 -6 -12 -2 -30 -12 -68 -30 -108 -9 -22 -17
-43 -18 -49 -1 -5 -3 -13 -5 -17 -1 -5 -3 -11 -5 -15 -1 -5 -4 -15 -8 -23 -3
-8 -8 -27 -11 -42 -5 -20 -11 -26 -24 -22 -13 4 -14 3 -4 -4 11 -7 11 -17 1
-50 -6 -23 -16 -39 -22 -35 -6 4 -7 1 -2 -6 6 -11 -3 -45 -32 -121 -8 -18 -7
-18 -17 -58 -4 -19 -12 -29 -18 -26 -7 4 -8 2 -4 -4 6 -10 -40 -161 -75 -247
-7 -16 -13 -35 -15 -42 -8 -42 -109 -329 -116 -331 -4 -2 -6 -7 -3 -12 6 -10
-60 -202 -68 -194 -3 3 -3 -3 0 -15 3 -12 1 -21 -6 -21 -6 0 -10 -3 -9 -7 6
-21 -14 -83 -24 -77 -6 4 -8 3 -5 -3 4 -6 -6 -50 -21 -97 -23 -72 -30 -84 -42
-73 -12 10 -12 9 -1 -5 10 -13 5 -37 -30 -140 -23 -67 -46 -125 -51 -126 -4
-2 -6 -7 -3 -12 2 -4 -6 -38 -19 -76 -23 -63 -29 -68 -29 -22 0 10 -3 15 -7
13 -10 -6 -18 14 -15 42 1 12 -2 20 -7 17 -7 -5 -9 1 -12 39 -1 6 -3 14 -6 17
-6 5 -34 88 -35 105 -1 6 -6 19 -12 30 -8 15 -41 114 -48 145 0 3 -9 28 -18
57 -10 28 -19 61 -20 72 -1 12 -5 21 -10 21 -5 0 -7 11 -5 25 3 13 1 22 -3 19
-7 -4 -17 19 -24 56 -1 3 -11 36 -23 73 -12 38 -19 74 -15 80 3 5 1 7 -4 4 -6
-4 -16 13 -23 41 -6 26 -17 57 -22 69 -6 12 -11 35 -12 51 -1 17 -4 28 -8 25
-5 -2 -8 -1 -9 4 -1 17 -8 40 -29 98 -11 33 -20 60 -20 60 1 0 -1 7 -4 15 -20
53 -54 175 -50 181 2 4 -1 9 -7 11 -7 2 -12 18 -13 35 0 17 -3 29 -6 27 -8 -9
-39 97 -33 114 3 9 2 14 -2 9 -10 -9 -37 63 -30 81 3 7 0 10 -5 7 -6 -3 -10 1
-10 9 0 9 -16 64 -36 123 -19 58 -36 115 -37 125 -1 10 -4 18 -8 18 -7 0 -24
66 -22 88 0 6 -3 12 -7 12 -7 0 -44 112 -45 135 0 6 -3 12 -7 15 -4 3 -9 15
-11 25 -2 11 -6 27 -9 35 -32 93 -39 121 -32 131 4 8 3 9 -4 5 -11 -7 -16 12
-15 51 1 7 -3 11 -7 8 -10 -6 -23 43 -15 55 4 6 2 10 -3 10 -8 0 -30 55 -36
90 -1 8 -12 41 -24 73 -12 32 -20 63 -17 68 4 5 1 9 -5 9 -7 0 -10 7 -6 15 3
8 2 15 -3 15 -5 0 -12 15 -16 33 -9 39 -6 29 -34 109 -12 37 -19 73 -15 79 4
8 3 9 -4 5 -7 -4 -13 -1 -13 8 -2 20 -3 25 -17 59 -11 26 -14 27 -72 25 l-61
-3 -17 -58 c-10 -31 -21 -55 -24 -52 -3 4 -6 0 -5 -7 1 -34 -4 -49 -15 -42 -6
4 -8 3 -5 -3 8 -13 -3 -74 -12 -69 -3 2 -7 -10 -8 -27 -1 -17 -6 -33 -10 -36
-5 -3 -8 -12 -9 -18 -3 -38 -5 -44 -13 -39 -4 3 -6 -6 -3 -21 3 -17 1 -24 -6
-19 -6 4 -8 -2 -5 -14 3 -11 1 -20 -4 -20 -5 0 -10 -6 -10 -14 0 -32 -67 -225
-76 -219 -6 3 -7 1 -3 -5 10 -16 -35 -163 -47 -155 -6 4 -7 1 -3 -6 5 -7 3
-24 -2 -39 -6 -15 -14 -36 -18 -47 -4 -11 -8 -22 -8 -25 -12 -53 -51 -170 -58
-170 -5 0 -7 -4 -3 -10 3 -5 -1 -26 -10 -47 -9 -21 -16 -39 -15 -41 0 -1 -14
-49 -31 -107 -29 -91 -35 -103 -48 -92 -14 11 -14 10 -2 -6 12 -15 8 -36 -35
-167 -26 -82 -52 -146 -57 -143 -6 3 -7 1 -3 -5 8 -13 -30 -149 -46 -169 -6
-7 -8 -13 -5 -13 3 0 -5 -31 -19 -70 -13 -38 -24 -77 -24 -85 0 -9 -4 -14 -9
-11 -4 3 -8 -2 -8 -12 1 -18 -21 -101 -31 -117 -4 -5 -8 -16 -9 -22 -2 -7 -4
-19 -6 -25 -1 -7 -5 -17 -9 -23 -3 -5 -9 -26 -13 -45 -4 -19 -10 -39 -13 -45
-4 -5 -7 -14 -8 -20 -3 -14 -93 -294 -107 -330 -7 -16 -12 -32 -12 -35 -6 -42
-19 -70 -33 -70 -12 0 -13 -3 -5 -8 17 -11 5 -52 -16 -53 -10 0 -11 -2 -3 -6
6 -2 12 -9 12 -14 0 -6 -4 -8 -9 -5 -5 4 -7 -4 -3 -16 3 -14 1 -19 -6 -14 -7
4 -10 2 -6 -7 3 -8 -2 -34 -11 -58 -9 -24 -18 -55 -21 -68 -3 -14 -8 -29 -11
-34 -7 -11 -33 47 -35 80 -1 13 -5 23 -9 23 -6 0 -30 78 -33 105 -1 6 -4 12
-8 15 -4 3 -9 15 -11 25 -2 11 -7 29 -11 40 -5 11 -14 37 -22 57 -8 21 -11 38
-8 38 4 0 2 6 -3 13 -6 6 -16 29 -23 51 -10 32 -10 40 1 48 11 8 11 9 -2 5
-12 -4 -19 5 -27 31 -6 19 -8 40 -5 46 3 6 2 8 -2 3 -8 -7 -30 43 -39 88 -2
11 -14 45 -26 75 -12 29 -19 62 -17 72 3 10 1 16 -3 13 -12 -7 -43 92 -34 107
4 7 3 10 -1 5 -7 -6 -47 89 -60 143 -2 8 -15 48 -29 89 -14 40 -23 77 -21 81
3 5 1 10 -4 12 -7 2 -230 643 -245 703 -1 6 -11 35 -21 65 -11 30 -20 57 -20
60 -1 3 -7 18 -13 33 -7 16 -10 33 -6 38 3 5 1 9 -4 9 -9 0 -68 176 -65 198 0
6 -3 12 -7 12 -11 0 -32 79 -24 92 4 7 3 8 -4 4 -7 -4 -13 -1 -13 8 -2 19 -4
26 -13 48 -4 9 -9 22 -10 30 -2 7 -6 20 -9 28 -3 8 -15 42 -26 75 -11 33 -48
139 -82 235 -33 96 -61 180 -62 185 0 11 -67 14 -67 4 0 -8 -33 -6 -40 2 -3 4
-14 3 -25 -1z"/>
<path d="M2559 3913 c-13 -16 -12 -17 4 -4 16 13 21 21 13 21 -2 0 -10 -8 -17
-17z"/>
<path d="M500 3886 c0 -2 8 -10 18 -17 15 -13 16 -12 3 4 -13 16 -21 21 -21
13z"/>
<path d="M4615 3681 c-3 -5 -2 -12 3 -15 5 -3 9 1 9 9 0 17 -3 19 -12 6z"/>
<path d="M2785 3620 c-3 -6 1 -7 9 -4 18 7 21 14 7 14 -6 0 -13 -4 -16 -10z"/>
<path d="M2393 3555 c0 -8 4 -12 9 -9 5 3 6 10 3 15 -9 13 -12 11 -12 -6z"/>
<path d="M2420 3566 c0 -2 8 -10 18 -17 15 -13 16 -12 3 4 -13 16 -21 21 -21
13z"/>
<path d="M2436 3518 c3 -5 10 -6 15 -3 13 9 11 12 -6 12 -8 0 -12 -4 -9 -9z"/>
<path d="M2353 3405 c0 -8 4 -12 9 -9 5 3 6 10 3 15 -9 13 -12 11 -12 -6z"/>
<path d="M2799 3353 c-13 -16 -12 -17 4 -4 16 13 21 21 13 21 -2 0 -10 -8 -17
-17z"/>
<path d="M2375 3340 c-3 -5 -1 -10 4 -10 6 0 11 5 11 10 0 6 -2 10 -4 10 -3 0
-8 -4 -11 -10z"/>
<path d="M2406 3338 c3 -5 10 -6 15 -3 13 9 11 12 -6 12 -8 0 -12 -4 -9 -9z"/>
<path d="M2495 3340 c3 -5 8 -10 11 -10 2 0 4 5 4 10 0 6 -5 10 -11 10 -5 0
-7 -4 -4 -10z"/>
<path d="M2296 3302 c-3 -5 1 -9 9 -9 8 0 12 4 9 9 -3 4 -7 8 -9 8 -2 0 -6 -4
-9 -8z"/>
<path d="M313 3285 c0 -8 4 -15 9 -15 4 0 8 4 8 9 0 6 -4 12 -8 15 -5 3 -9 -1
-9 -9z"/>
<path d="M2395 3231 c-3 -5 -2 -12 3 -15 5 -3 9 1 9 9 0 17 -3 19 -12 6z"/>
<path d="M1913 3065 c0 -8 4 -12 9 -9 5 3 6 10 3 15 -9 13 -12 11 -12 -6z"/>
<path d="M674 3049 c-3 -6 -2 -15 3 -20 5 -5 9 -1 9 11 0 23 -2 24 -12 9z"/>
<path d="M790 2980 c0 -5 5 -10 11 -10 5 0 7 5 4 10 -3 6 -8 10 -11 10 -2 0
-4 -4 -4 -10z"/>
<path d="M2476 2927 c3 -10 9 -15 12 -12 3 3 0 11 -7 18 -10 9 -11 8 -5 -6z"/>
<path d="M510 2801 c0 -6 4 -13 10 -16 6 -3 7 1 4 9 -7 18 -14 21 -14 7z"/>
<path d="M510 2720 c0 -5 5 -10 11 -10 5 0 7 5 4 10 -3 6 -8 10 -11 10 -2 0
-4 -4 -4 -10z"/>
<path d="M3010 2720 c0 -5 5 -10 11 -10 5 0 7 5 4 10 -3 6 -8 10 -11 10 -2 0
-4 -4 -4 -10z"/>
<path d="M820 2686 c0 -2 8 -10 18 -17 15 -13 16 -12 3 4 -13 16 -21 21 -21
13z"/>
<path d="M2707 2639 c7 -7 15 -10 18 -7 3 3 -2 9 -12 12 -14 6 -15 5 -6 -5z"/>
<path d="M1815 2571 c-3 -5 -2 -12 3 -15 5 -3 9 1 9 9 0 17 -3 19 -12 6z"/>
<path d="M2993 2515 c0 -8 4 -12 9 -9 5 3 6 10 3 15 -9 13 -12 11 -12 -6z"/>
<path d="M3230 2281 c0 -6 4 -13 10 -16 6 -3 7 1 4 9 -7 18 -14 21 -14 7z"/>
<path d="M1639 2233 c-13 -17 -13 -17 6 -3 11 8 22 16 24 17 2 2 0 3 -6 3 -6
0 -17 -8 -24 -17z"/>
<path d="M1916 2133 c-6 -14 -5 -15 5 -6 7 7 10 15 7 18 -3 3 -9 -2 -12 -12z"/>
<path d="M796 1802 c-3 -5 1 -9 9 -9 8 0 12 4 9 9 -3 4 -7 8 -9 8 -2 0 -6 -4
-9 -8z"/>
<path d="M1545 1800 c-3 -6 1 -7 9 -4 18 7 21 14 7 14 -6 0 -13 -4 -16 -10z"/>
<path d="M3647 1599 c7 -7 15 -10 18 -7 3 3 -2 9 -12 12 -14 6 -15 5 -6 -5z"/>
<path d="M1390 1559 c0 -5 5 -7 10 -4 6 3 10 8 10 11 0 2 -4 4 -10 4 -5 0 -10
-5 -10 -11z"/>
<path d="M3550 1520 c0 -5 5 -10 11 -10 5 0 7 5 4 10 -3 6 -8 10 -11 10 -2 0
-4 -4 -4 -10z"/>
<path d="M1235 1500 c-3 -5 -1 -10 4 -10 6 0 11 5 11 10 0 6 -2 10 -4 10 -3 0
-8 -4 -11 -10z"/>
<path d="M920 1480 c-9 -6 -10 -10 -3 -10 6 0 15 5 18 10 8 12 4 12 -15 0z"/>
<path d="M1376 1478 c3 -5 10 -6 15 -3 13 9 11 12 -6 12 -8 0 -12 -4 -9 -9z"/>
<path d="M1339 1468 c-4 -12 -5 -57 0 -53 6 6 10 55 4 55 -1 0 -3 -1 -4 -2z"/>
<path d="M3376 1458 c3 -4 11 -5 19 -1 21 7 19 12 -4 10 -11 0 -18 -5 -15 -9z"/>
<path d="M3446 1462 c-3 -5 1 -9 9 -9 8 0 12 4 9 9 -3 4 -7 8 -9 8 -2 0 -6 -4
-9 -8z"/>
<path d="M1205 1440 c-3 -6 1 -7 9 -4 18 7 21 14 7 14 -6 0 -13 -4 -16 -10z"/>
<path d="M3493 1431 c0 -11 5 -18 9 -15 4 3 5 11 1 19 -7 21 -12 19 -10 -4z"/>
<path d="M3595 1441 c-3 -5 -2 -12 3 -15 5 -3 9 1 9 9 0 17 -3 19 -12 6z"/>
<path d="M3394 1422 c4 -3 14 -7 22 -8 9 -1 13 0 10 4 -4 3 -14 7 -22 8 -9 1
-13 0 -10 -4z"/>
<path d="M1276 1407 c3 -10 9 -15 12 -12 3 3 0 11 -7 18 -10 9 -11 8 -5 -6z"/>
<path d="M1419 1408 c-5 -18 -6 -38 -1 -34 7 8 12 36 6 36 -2 0 -4 -1 -5 -2z"/>
<path d="M3340 1406 c0 -2 8 -10 18 -17 15 -13 16 -12 3 4 -13 16 -21 21 -21
13z"/>
<path d="M3535 1400 c3 -5 8 -10 11 -10 2 0 4 5 4 10 0 6 -5 10 -11 10 -5 0
-7 -4 -4 -10z"/>
<path d="M3494 1376 c1 -8 5 -18 8 -22 4 -3 5 1 4 10 -1 8 -5 18 -8 22 -4 3
-5 -1 -4 -10z"/>
<path d="M913 1355 c0 -8 4 -12 9 -9 5 3 6 10 3 15 -9 13 -12 11 -12 -6z"/>
<path d="M1635 1360 c-3 -5 -1 -10 4 -10 6 0 11 5 11 10 0 6 -2 10 -4 10 -3 0
-8 -4 -11 -10z"/>
<path d="M1700 1366 c0 -2 8 -10 18 -17 15 -13 16 -12 3 4 -13 16 -21 21 -21
13z"/>
<path d="M1335 1340 c3 -5 8 -10 11 -10 2 0 4 5 4 10 0 6 -5 10 -11 10 -5 0
-7 -4 -4 -10z"/>
<path d="M3366 1338 c3 -5 10 -6 15 -3 13 9 11 12 -6 12 -8 0 -12 -4 -9 -9z"/>
<path d="M1250 1299 c0 -5 5 -7 10 -4 6 3 10 8 10 11 0 2 -4 4 -10 4 -5 0 -10
-5 -10 -11z"/>
<path d="M1595 1280 c3 -5 8 -10 11 -10 2 0 4 5 4 10 0 6 -5 10 -11 10 -5 0
-7 -4 -4 -10z"/>
<path d="M3410 1260 c0 -5 5 -10 11 -10 5 0 7 5 4 10 -3 6 -8 10 -11 10 -2 0
-4 -4 -4 -10z"/>
<path d="M1270 1256 c0 -2 8 -10 18 -17 15 -13 16 -12 3 4 -13 16 -21 21 -21
13z"/>
<path d="M1345 1240 c-3 -6 1 -7 9 -4 18 7 21 14 7 14 -6 0 -13 -4 -16 -10z"/>
<path d="M3415 1220 c3 -5 8 -10 11 -10 2 0 4 5 4 10 0 6 -5 10 -11 10 -5 0
-7 -4 -4 -10z"/>
<path d="M995 1201 c-3 -5 -2 -12 3 -15 5 -3 9 1 9 9 0 17 -3 19 -12 6z"/>
<path d="M1290 1136 c0 -2 8 -10 18 -17 15 -13 16 -12 3 4 -13 16 -21 21 -21
13z"/>
<path d="M3475 1120 c-3 -5 -1 -10 4 -10 6 0 11 5 11 10 0 6 -2 10 -4 10 -3 0
-8 -4 -11 -10z"/>
<path d="M1110 1046 c0 -2 7 -7 16 -10 8 -3 12 -2 9 4 -6 10 -25 14 -25 6z"/>
</g>
</svg>
