<?xml version="1.0" encoding="UTF-8" standalone="no"?>
<!-- Created with Inkscape (http://www.inkscape.org/) -->

<svg
   xmlns:dc="http://purl.org/dc/elements/1.1/"
   xmlns:cc="http://creativecommons.org/ns#"
   xmlns:rdf="http://www.w3.org/1999/02/22-rdf-syntax-ns#"
   xmlns:svg="http://www.w3.org/2000/svg"
   xmlns="http://www.w3.org/2000/svg"
   version="1.1"
   width="585"
   height="495"
   id="svg2"
   xml:space="preserve"><metadata
     id="metadata8"><rdf:RDF><cc:Work
         rdf:about=""><dc:format>image/svg+xml</dc:format><dc:type
           rdf:resource="http://purl.org/dc/dcmitype/StillImage" /><dc:title></dc:title></cc:Work></rdf:RDF></metadata><defs
     id="defs6"><clipPath
       id="clipPath18"><path
         d="M 0,396 468,396 468,0 0,0 0,396 z"
         id="path20" /></clipPath><clipPath
       id="clipPath160"><path
         d="m 126.346,214.309 -19.668,-61.17 -20.607,60.98 -3.467,0 22.666,-66.039 2.625,0 19.576,60.234 19.674,-60.234 2.625,0 22.666,66.039 -3.281,0 -20.604,-61.075 -19.767,61.265 -2.438,0 z"
         id="path162" /></clipPath><linearGradient
       x1="0"
       y1="0"
       x2="1"
       y2="0"
       id="linearGradient168"
       gradientUnits="userSpaceOnUse"
       gradientTransform="matrix(-3e-6,-69.30468,-69.30468,3e-6,127.52002,213.84521)"
       spreadMethod="pad"><stop
         id="stop170"
         style="stop-color:#00aabb;stop-opacity:1"
         offset="0" /><stop
         id="stop172"
         style="stop-color:#007688;stop-opacity:1"
         offset="1" /></linearGradient><clipPath
       id="clipPath180"><path
         d="m 186.197,148.549 3.182,0 0,65.57 -3.182,0 0,-65.57 z"
         id="path182" /></clipPath><linearGradient
       x1="0"
       y1="0"
       x2="1"
       y2="0"
       id="linearGradient188"
       gradientUnits="userSpaceOnUse"
       gradientTransform="matrix(-3e-6,-69.304398,-69.304398,3e-6,187.78857,213.84521)"
       spreadMethod="pad"><stop
         id="stop190"
         style="stop-color:#00aabb;stop-opacity:1"
         offset="0" /><stop
         id="stop192"
         style="stop-color:#007688;stop-opacity:1"
         offset="1" /></linearGradient><clipPath
       id="clipPath200"><path
         d="m 268.811,214.119 -27.633,-39.904 -27.726,39.904 -2.996,0 0,-65.57 3.088,0 0,60.046 27.449,-39.343 0.185,0 27.451,39.343 0,-60.046 3.18,0 0,65.57 -2.998,0 z"
         id="path202" /></clipPath><linearGradient
       x1="0"
       y1="0"
       x2="1"
       y2="0"
       id="linearGradient208"
       gradientUnits="userSpaceOnUse"
       gradientTransform="matrix(-3e-6,-69.304398,-69.304398,3e-6,241.13232,213.84521)"
       spreadMethod="pad"><stop
         id="stop210"
         style="stop-color:#00aabb;stop-opacity:1"
         offset="0" /><stop
         id="stop212"
         style="stop-color:#007688;stop-opacity:1"
         offset="1" /></linearGradient><clipPath
       id="clipPath220"><path
         d="m 291.755,148.549 3.088,0 0,65.617 -3.088,0 0,-65.617 z"
         id="path222" /></clipPath><linearGradient
       x1="0"
       y1="0"
       x2="1"
       y2="0"
       id="linearGradient228"
       gradientUnits="userSpaceOnUse"
       gradientTransform="matrix(-4.2e-6,-96.322807,-96.322807,4.2e-6,293.29834,239.30029)"
       spreadMethod="pad"><stop
         id="stop230"
         style="stop-color:#00aabb;stop-opacity:1"
         offset="0" /><stop
         id="stop232"
         style="stop-color:#007688;stop-opacity:1"
         offset="1" /></linearGradient><clipPath
       id="clipPath240"><path
         d="m 316.762,184.522 0,11.241 -2.996,0 0,-47.214 2.996,0 0,26.604 c 0,10.771 7.869,18.921 17.801,18.921 l 0,0 c 10.959,0 16.861,-7.401 16.861,-18.359 l 0,0 0,-27.166 2.996,0 0,27.637 c 0,12.269 -7.025,20.698 -19.484,20.698 l 0,0 c -10.117,0 -16.016,-6.744 -18.174,-12.362"
         id="path242" /></clipPath><linearGradient
       x1="0"
       y1="0"
       x2="1"
       y2="0"
       id="linearGradient248"
       gradientUnits="userSpaceOnUse"
       gradientTransform="matrix(-3e-6,-69.305565,-69.305565,3e-6,334.09326,213.8457)"
       spreadMethod="pad"><stop
         id="stop250"
         style="stop-color:#00aabb;stop-opacity:1"
         offset="0" /><stop
         id="stop252"
         style="stop-color:#007688;stop-opacity:1"
         offset="1" /></linearGradient><clipPath
       id="clipPath260"><path
         d="M 0,396 468,396 468,0 0,0 0,396 z"
         id="path262" /></clipPath><filter
       color-interpolation-filters="sRGB"
       id="filter5948"><feFlood
         result="flood"
         flood-color="rgb(255,255,255)"
         flood-opacity="0.65"
         id="feFlood5950" /><feComposite
         in2="SourceGraphic"
         operator="in"
         in="flood"
         result="composite1"
         id="feComposite5952" /><feGaussianBlur
         result="blur"
         stdDeviation="5"
         id="feGaussianBlur5954" /><feOffset
         result="offset"
         dy="-2.47025e-15"
         dx="0"
         id="feOffset5956" /><feComposite
         in2="offset"
         operator="over"
         in="SourceGraphic"
         result="composite2"
         id="feComposite5958" /></filter></defs><g
     transform="matrix(1.25,0,0,-1.25,0,495)"
     id="g10"><g
       id="g5681"
       style="filter:url(#filter5948)"><path
         d="m 129.31457,52.717054 1.95252,0 0,-13.946519 -1.95252,0 0,13.946519 z"
         id="path12"
         style="fill:#00aabb;fill-opacity:1;fill-rule:nonzero;stroke:none" /><g
         transform="matrix(1.34749,0,0,1.34749,-75.921625,-76.473544)"
         id="g14"><g
           clip-path="url(#clipPath18)"
           id="g16"><g
             transform="translate(157.1895,86.8564)"
             id="g22"><path
               d="m 0,0 c 1.064,0 1.907,0.99 1.907,3.682 l 0,0.325 c 0,2.69 -0.857,3.681 -1.922,3.681 l -0.207,0 L -0.222,0 0,0 z m -1.686,9.019 1.553,0 c 2.188,0 3.519,-1.686 3.519,-5.012 l 0,-0.325 c 0,-3.328 -1.331,-5.013 -3.519,-5.013 l -1.553,0 0,10.35 z"
               id="path24"
               style="fill:#00aabb;fill-opacity:1;fill-rule:nonzero;stroke:none" /></g><g
             transform="translate(162.3501,95.875)"
             id="g26"><path
               d="m 0,0 3.83,0 0,-1.375 -2.366,0 0,-3.075 2.114,0 0,-1.375 -2.114,0 0,-3.15 2.41,0 0,-1.375 L 0,-10.35 0,0 z"
               id="path28"
               style="fill:#00aabb;fill-opacity:1;fill-rule:nonzero;stroke:none" /></g><g
             transform="translate(171.0146,89.1475)"
             id="g30"><path
               d="M 0,0 -0.754,4.155 -1.508,0 0,0 z m -1.508,6.758 1.552,0 2.056,-10.38 -1.464,0 -0.414,2.307 -1.952,0 -0.414,-2.307 -1.419,0 2.055,10.38 z"
               id="path32"
               style="fill:#00aabb;fill-opacity:1;fill-rule:nonzero;stroke:none" /></g><g
             transform="translate(174.3716,85.8955)"
             id="g34"><path
               d="M 0,0 0,1.537 C 0.65,1.138 1.183,0.931 1.686,0.931 c 0.621,0 1.094,0.355 1.094,1.064 l 0,0.03 c 0,0.591 -0.193,1.02 -1.139,2.159 -1.271,1.523 -1.73,2.173 -1.73,3.341 l 0,0.03 c 0,1.523 1.035,2.528 2.366,2.528 0.695,0 1.139,-0.133 1.597,-0.369 l 0,-1.538 C 3.312,8.517 2.913,8.679 2.439,8.679 c -0.591,0 -1.064,-0.4 -1.064,-1.05 l 0,-0.029 c 0,-0.578 0.192,-0.888 1.139,-2.011 1.375,-1.627 1.73,-2.321 1.73,-3.49 l 0,-0.03 C 4.244,0.547 3.164,-0.474 1.819,-0.474 1.139,-0.474 0.547,-0.281 0,0"
               id="path36"
               style="fill:#00aabb;fill-opacity:1;fill-rule:nonzero;stroke:none" /></g><path
             d="m 183.983,96.881 0.754,0 0,-12.805 -0.754,0 0,12.805 z"
             id="path38"
             style="fill:#00aabb;fill-opacity:1;fill-rule:nonzero;stroke:none" /><g
             transform="translate(190.5039,95.875)"
             id="g40"><path
               d="M 0,0 1.493,0 2.957,-4.391 4.421,0 l 1.493,0 0,-10.35 -1.404,0 0,7.053 -1.538,-4.554 -0.044,0 -1.538,4.554 0,-7.053 -1.39,0 L 0,0 z"
               id="path42"
               style="fill:#00aabb;fill-opacity:1;fill-rule:nonzero;stroke:none" /></g><g
             transform="translate(201.1797,89.1475)"
             id="g44"><path
               d="M 0,0 -0.754,4.155 -1.508,0 0,0 z m -1.508,6.758 1.552,0 2.056,-10.38 -1.464,0 -0.414,2.307 -1.952,0 -0.414,-2.307 -1.419,0 2.055,10.38 z"
               id="path46"
               style="fill:#00aabb;fill-opacity:1;fill-rule:nonzero;stroke:none" /></g><g
             transform="translate(204.7881,95.875)"
             id="g48"><path
               d="m 0,0 1.464,0 0,-4.79 1.877,4.79 1.657,0 -1.937,-4.465 2.04,-5.885 -1.612,0 -1.493,4.229 -0.532,-1.301 0,-2.928 L 0,-10.35 0,0 z"
               id="path50"
               style="fill:#00aabb;fill-opacity:1;fill-rule:nonzero;stroke:none" /></g><g
             transform="translate(211.3389,95.875)"
             id="g52"><path
               d="m 0,0 3.83,0 0,-1.375 -2.366,0 0,-3.075 2.114,0 0,-1.375 -2.114,0 0,-3.15 2.41,0 0,-1.375 L 0,-10.35 0,0 z"
               id="path54"
               style="fill:#00aabb;fill-opacity:1;fill-rule:nonzero;stroke:none" /></g><g
             transform="translate(218.6426,90.6113)"
             id="g56"><path
               d="m 0,0 c 0.976,0 1.642,0.592 1.642,1.923 l 0,0.089 c 0,1.419 -0.71,1.892 -1.686,1.892 l -0.207,0 L -0.251,0 0,0 z m -1.715,5.264 1.686,0 c 1.833,0 3.134,-1.02 3.134,-3.223 l 0,-0.104 c 0,-1.375 -0.576,-2.277 -1.39,-2.765 l 1.568,-4.258 -1.568,0 -1.389,3.785 c -0.059,0 -0.134,-0.014 -0.193,-0.014 l -0.384,0 0,-3.771 -1.464,0 0,10.35 z"
               id="path58"
               style="fill:#00aabb;fill-opacity:1;fill-rule:nonzero;stroke:none" /></g><g
             transform="translate(223.2271,85.8955)"
             id="g60"><path
               d="M 0,0 0,1.537 C 0.65,1.138 1.183,0.931 1.686,0.931 c 0.621,0 1.094,0.355 1.094,1.064 l 0,0.03 c 0,0.591 -0.193,1.02 -1.139,2.159 -1.271,1.523 -1.73,2.173 -1.73,3.341 l 0,0.03 c 0,1.523 1.035,2.528 2.366,2.528 0.695,0 1.139,-0.133 1.597,-0.369 l 0,-1.538 C 3.312,8.517 2.913,8.679 2.439,8.679 c -0.591,0 -1.064,-0.4 -1.064,-1.05 l 0,-0.029 c 0,-0.578 0.192,-0.888 1.139,-2.011 1.375,-1.627 1.73,-2.321 1.73,-3.49 l 0,-0.03 C 4.244,0.547 3.164,-0.474 1.819,-0.474 1.139,-0.474 0.547,-0.281 0,0"
               id="path62"
               style="fill:#00aabb;fill-opacity:1;fill-rule:nonzero;stroke:none" /></g><path
             d="m 232.838,96.881 0.754,0 0,-12.805 -0.754,0 0,12.805 z"
             id="path64"
             style="fill:#00aabb;fill-opacity:1;fill-rule:nonzero;stroke:none" /><path
             d="m 239.418,95.875 1.449,0 0,-10.35 -1.449,0 0,10.35 z"
             id="path66"
             style="fill:#00aabb;fill-opacity:1;fill-rule:nonzero;stroke:none" /><g
             transform="translate(242.9082,95.875)"
             id="g68"><path
               d="m 0,0 1.39,0 2.247,-6.269 0,6.269 1.42,0 0,-10.35 -1.317,0 -2.321,6.506 0,-6.506 L 0,-10.35 0,0 z"
               id="path70"
               style="fill:#00aabb;fill-opacity:1;fill-rule:nonzero;stroke:none" /></g><g
             transform="translate(249.9463,95.875)"
             id="g72"><path
               d="m 0,0 1.39,0 2.248,-6.269 0,6.269 1.419,0 0,-10.35 -1.317,0 -2.321,6.506 0,-6.506 L 0,-10.35 0,0 z"
               id="path74"
               style="fill:#00aabb;fill-opacity:1;fill-rule:nonzero;stroke:none" /></g><g
             transform="translate(260.623,90.4785)"
             id="g76"><path
               d="m 0,0 0,0.443 c 0,2.677 -0.488,3.756 -1.184,3.756 -0.694,0 -1.182,-1.079 -1.182,-3.756 l 0,-0.443 c 0,-2.676 0.488,-3.756 1.182,-3.756 C -0.488,-3.756 0,-2.676 0,0 m -3.845,0 0,0.443 c 0,3.491 1.094,5.087 2.661,5.087 1.568,0 2.663,-1.596 2.663,-5.087 L 1.479,0 c 0,-3.489 -1.095,-5.086 -2.663,-5.086 -1.567,0 -2.661,1.597 -2.661,5.086"
               id="path78"
               style="fill:#00aabb;fill-opacity:1;fill-rule:nonzero;stroke:none" /></g><g
             transform="translate(263.1514,95.875)"
             id="g80"><path
               d="M 0,0 1.493,0 2.721,-7.481 3.948,0 5.382,0 3.445,-10.394 l -1.508,0 L 0,0 z"
               id="path82"
               style="fill:#00aabb;fill-opacity:1;fill-rule:nonzero;stroke:none" /></g><g
             transform="translate(272.0967,89.1475)"
             id="g84"><path
               d="M 0,0 -0.754,4.155 -1.508,0 0,0 z m -1.508,6.758 1.553,0 2.055,-10.38 -1.464,0 -0.414,2.307 -1.951,0 -0.415,-2.307 -1.419,0 2.055,10.38 z"
               id="path86"
               style="fill:#00aabb;fill-opacity:1;fill-rule:nonzero;stroke:none" /></g><g
             transform="translate(276.1777,94.5)"
             id="g88"><path
               d="m 0,0 -1.404,0 0,1.375 4.243,0 0,-1.375 -1.39,0 0,-8.975 L 0,-8.975 0,0 z"
               id="path90"
               style="fill:#00aabb;fill-opacity:1;fill-rule:nonzero;stroke:none" /></g><g
             transform="translate(283.9414,90.4785)"
             id="g92"><path
               d="m 0,0 0,0.443 c 0,2.677 -0.488,3.756 -1.184,3.756 -0.694,0 -1.182,-1.079 -1.182,-3.756 l 0,-0.443 c 0,-2.676 0.488,-3.756 1.182,-3.756 C -0.488,-3.756 0,-2.676 0,0 m -3.845,0 0,0.443 c 0,3.491 1.094,5.087 2.661,5.087 1.568,0 2.663,-1.596 2.663,-5.087 L 1.479,0 c 0,-3.489 -1.095,-5.086 -2.663,-5.086 -1.567,0 -2.661,1.597 -2.661,5.086"
               id="path94"
               style="fill:#00aabb;fill-opacity:1;fill-rule:nonzero;stroke:none" /></g><g
             transform="translate(288.9092,90.6113)"
             id="g96"><path
               d="m 0,0 c 0.976,0 1.642,0.592 1.642,1.923 l 0,0.089 c 0,1.419 -0.71,1.892 -1.686,1.892 l -0.207,0 L -0.251,0 0,0 z m -1.715,5.264 1.686,0 c 1.833,0 3.134,-1.02 3.134,-3.223 l 0,-0.104 c 0,-1.375 -0.577,-2.277 -1.389,-2.765 l 1.566,-4.258 -1.566,0 -1.391,3.785 c -0.058,0 -0.133,-0.014 -0.192,-0.014 l -0.384,0 0,-3.771 -1.464,0 0,10.35 z"
               id="path98"
               style="fill:#00aabb;fill-opacity:1;fill-rule:nonzero;stroke:none" /></g><g
             transform="translate(293.4941,85.8955)"
             id="g100"><path
               d="M 0,0 0,1.537 C 0.65,1.138 1.183,0.931 1.686,0.931 c 0.62,0 1.093,0.355 1.093,1.064 l 0,0.03 c 0,0.591 -0.192,1.02 -1.138,2.159 -1.272,1.523 -1.73,2.173 -1.73,3.341 l 0,0.03 c 0,1.523 1.035,2.528 2.365,2.528 0.696,0 1.139,-0.133 1.597,-0.369 l 0,-1.538 C 3.312,8.517 2.912,8.679 2.439,8.679 c -0.591,0 -1.064,-0.4 -1.064,-1.05 l 0,-0.029 c 0,-0.578 0.191,-0.888 1.138,-2.011 1.376,-1.627 1.73,-2.321 1.73,-3.49 l 0,-0.03 C 4.243,0.547 3.164,-0.474 1.818,-0.474 1.138,-0.474 0.547,-0.281 0,0"
               id="path102"
               style="fill:#00aabb;fill-opacity:1;fill-rule:nonzero;stroke:none" /></g><g
             transform="translate(151.8154,122.248)"
             id="g104"><path
               d="M 0,0 2.504,0 4.076,-11.883 5.966,0 8.2,0 10.066,-11.883 11.662,0 l 2.431,0 -2.701,-17.259 -2.504,0 -1.842,11.637 -1.841,-11.637 -2.48,0 L 0,0 z"
               id="path106"
               style="fill:#007688;fill-opacity:1;fill-rule:nonzero;stroke:none" /></g><g
             transform="translate(171.6509,111.0771)"
             id="g108"><path
               d="M 0,0 -1.252,6.899 -2.504,0 0,0 z m -2.504,11.221 2.578,0 3.412,-17.236 -2.43,0 -0.687,3.83 -3.242,0 -0.687,-3.83 -2.357,0 3.413,17.236 z"
               id="path110"
               style="fill:#007688;fill-opacity:1;fill-rule:nonzero;stroke:none" /></g><g
             transform="translate(177.9351,119.9648)"
             id="g112"><path
               d="m 0,0 -2.333,0 0,2.283 7.047,0 0,-2.283 -2.308,0 0,-14.902 -2.406,0 L 0,0 z"
               id="path114"
               style="fill:#007688;fill-opacity:1;fill-rule:nonzero;stroke:none" /></g><g
             transform="translate(184.7837,122.248)"
             id="g116"><path
               d="m 0,0 6.359,0 0,-2.283 -3.928,0 0,-5.107 3.51,0 0,-2.283 -3.51,0 0,-5.229 4.001,0 0,-2.284 -6.432,0 L 0,0 z"
               id="path118"
               style="fill:#007688;fill-opacity:1;fill-rule:nonzero;stroke:none" /></g><g
             transform="translate(196.9102,113.5078)"
             id="g120"><path
               d="m 0,0 c 1.621,0 2.726,0.982 2.726,3.192 l 0,0.148 c 0,2.356 -1.179,3.142 -2.799,3.142 l -0.344,0 L -0.417,0 0,0 z m -2.848,8.74 2.799,0 c 3.045,0 5.205,-1.693 5.205,-5.351 l 0,-0.172 c 0,-2.283 -0.957,-3.781 -2.308,-4.592 l 2.603,-7.07 -2.603,0 -2.307,6.285 c -0.099,0 -0.222,-0.025 -0.32,-0.025 l -0.638,0 0,-6.26 -2.431,0 0,17.185 z"
               id="path122"
               style="fill:#007688;fill-opacity:1;fill-rule:nonzero;stroke:none" /></g><g
             transform="translate(204.9375,122.248)"
             id="g124"><path
               d="m 0,0 2.431,0 0,-14.902 3.51,0 0,-2.284 -5.941,0 L 0,0 z"
               id="path126"
               style="fill:#007688;fill-opacity:1;fill-rule:nonzero;stroke:none" /></g><g
             transform="translate(218.8325,113.2871)"
             id="g128"><path
               d="m 0,0 0,0.736 c 0,4.445 -0.81,6.237 -1.964,6.237 -1.154,0 -1.964,-1.792 -1.964,-6.237 l 0,-0.736 c 0,-4.443 0.81,-6.236 1.964,-6.236 C -0.81,-6.236 0,-4.443 0,0 m -6.383,0 0,0.736 c 0,5.795 1.817,8.447 4.419,8.447 2.602,0 4.419,-2.652 4.419,-8.447 L 2.455,0 c 0,-5.794 -1.817,-8.445 -4.419,-8.445 -2.602,0 -4.419,2.651 -4.419,8.445"
               id="path130"
               style="fill:#007688;fill-opacity:1;fill-rule:nonzero;stroke:none" /></g><g
             transform="translate(230.2715,113.2871)"
             id="g132"><path
               d="m 0,0 0,0.736 c 0,4.445 -0.811,6.237 -1.964,6.237 -1.154,0 -1.964,-1.792 -1.964,-6.237 l 0,-0.736 c 0,-4.443 0.81,-6.236 1.964,-6.236 C -0.811,-6.236 0,-4.443 0,0 m -6.383,0 0,0.736 c 0,5.795 1.817,8.447 4.419,8.447 2.603,0 4.419,-2.652 4.419,-8.447 L 2.455,0 c 0,-5.794 -1.816,-8.445 -4.419,-8.445 -2.602,0 -4.419,2.651 -4.419,8.445"
               id="path134"
               style="fill:#007688;fill-opacity:1;fill-rule:nonzero;stroke:none" /></g><g
             transform="translate(240.0898,122.248)"
             id="g136"><path
               d="M 0,0 2.504,0 4.075,-11.883 5.966,0 8.2,0 10.065,-11.883 11.661,0 l 2.431,0 -2.7,-17.259 -2.505,0 -1.841,11.637 -1.842,-11.637 -2.479,0 L 0,0 z"
               id="path138"
               style="fill:#007688;fill-opacity:1;fill-rule:nonzero;stroke:none" /></g><g
             transform="translate(261.5703,113.2871)"
             id="g140"><path
               d="m 0,0 0,0.736 c 0,4.445 -0.811,6.237 -1.965,6.237 -1.153,0 -1.964,-1.792 -1.964,-6.237 l 0,-0.736 c 0,-4.443 0.811,-6.236 1.964,-6.236 C -0.811,-6.236 0,-4.443 0,0 m -6.384,0 0,0.736 c 0,5.795 1.817,8.447 4.419,8.447 2.603,0 4.42,-2.652 4.42,-8.447 L 2.455,0 c 0,-5.794 -1.817,-8.445 -4.42,-8.445 -2.602,0 -4.419,2.651 -4.419,8.445"
               id="path142"
               style="fill:#007688;fill-opacity:1;fill-rule:nonzero;stroke:none" /></g><g
             transform="translate(266.4785,122.248)"
             id="g144"><path
               d="M 0,0 2.479,0 4.91,-7.291 7.341,0 9.82,0 l 0,-17.186 -2.332,0 0,11.711 -2.553,-7.561 -0.074,0 -2.553,7.561 0,-11.711 -2.308,0 L 0,0 z"
               id="path146"
               style="fill:#007688;fill-opacity:1;fill-rule:nonzero;stroke:none" /></g><g
             transform="translate(279.0967,122.248)"
             id="g148"><path
               d="m 0,0 6.358,0 0,-2.283 -3.927,0 0,-5.107 3.51,0 0,-2.283 -3.51,0 0,-5.229 4.002,0 0,-2.284 -6.433,0 L 0,0 z"
               id="path150"
               style="fill:#007688;fill-opacity:1;fill-rule:nonzero;stroke:none" /></g><g
             transform="translate(288.376,122.248)"
             id="g152"><path
               d="M 0,0 2.308,0 6.04,-10.409 6.04,0 l 2.356,0 0,-17.186 -2.185,0 -3.855,10.803 0,-10.803 -2.356,0 L 0,0 z"
               id="path154"
               style="fill:#007688;fill-opacity:1;fill-rule:nonzero;stroke:none" /></g></g></g><g
         transform="matrix(1.34749,0,0,1.34749,-75.921625,-76.473544)"
         id="g156"><g
           clip-path="url(#clipPath160)"
           id="g158"><g
             id="g164"><g
               id="g166"><path
                 d="m 126.346,214.309 -19.668,-61.17 -20.607,60.98 -3.467,0 22.666,-66.039 2.625,0 19.576,60.234 19.674,-60.234 2.625,0 22.666,66.039 -3.281,0 -20.604,-61.075 -19.767,61.265 -2.438,0 z"
                 id="path174"
                 style="fill:url(#linearGradient168);stroke:none" /></g></g></g></g><g
         transform="matrix(1.34749,0,0,1.34749,-75.921625,-76.473544)"
         id="g176"><g
           clip-path="url(#clipPath180)"
           id="g178"><g
             id="g184"><g
               id="g186"><path
                 d="m 186.197,148.549 3.182,0 0,65.57 -3.182,0 0,-65.57 z"
                 id="path194"
                 style="fill:url(#linearGradient188);stroke:none" /></g></g></g></g><g
         transform="matrix(1.34749,0,0,1.34749,-75.921625,-76.473544)"
         id="g196"><g
           clip-path="url(#clipPath200)"
           id="g198"><g
             id="g204"><g
               id="g206"><path
                 d="m 268.811,214.119 -27.633,-39.904 -27.726,39.904 -2.996,0 0,-65.57 3.088,0 0,60.046 27.449,-39.343 0.185,0 27.451,39.343 0,-60.046 3.18,0 0,65.57 -2.998,0 z"
                 id="path214"
                 style="fill:url(#linearGradient208);stroke:none" /></g></g></g></g><g
         transform="matrix(1.34749,0,0,1.34749,-75.921625,-76.473544)"
         id="g216"><g
           clip-path="url(#clipPath220)"
           id="g218"><g
             id="g224"><g
               id="g226"><path
                 d="m 291.755,148.549 3.088,0 0,65.617 -3.088,0 0,-65.617 z"
                 id="path234"
                 style="fill:url(#linearGradient228);stroke:none" /></g></g></g></g><g
         transform="matrix(1.34749,0,0,1.34749,-75.921625,-76.473544)"
         id="g236"><g
           clip-path="url(#clipPath240)"
           id="g238"><g
             id="g244"><g
               id="g246"><path
                 d="m 316.762,184.522 0,11.241 -2.996,0 0,-47.214 2.996,0 0,26.604 c 0,10.771 7.869,18.921 17.801,18.921 l 0,0 c 10.959,0 16.861,-7.401 16.861,-18.359 l 0,0 0,-27.166 2.996,0 0,27.637 c 0,12.269 -7.025,20.698 -19.484,20.698 l 0,0 c -10.117,0 -16.016,-6.744 -18.174,-12.362"
                 id="path254"
                 style="fill:url(#linearGradient248);stroke:none" /></g></g></g></g><g
         transform="matrix(1.34749,0,0,1.34749,-75.921625,-76.473544)"
         id="g256"><g
           clip-path="url(#clipPath260)"
           id="g258"><g
             transform="translate(152.1372,67.9307)"
             id="g264"><path
               d="m 0,0 0,8.758 1.707,0 0,-8.914 c 0,-1.272 0.487,-1.846 1.201,-1.846 0.731,0 1.218,0.574 1.218,1.846 l 0,8.914 1.689,0 0,-8.758 C 5.815,-2.402 4.614,-3.586 2.908,-3.586 1.202,-3.586 0,-2.402 0,0"
               id="path266"
               style="fill:#737577;fill-opacity:1;fill-rule:nonzero;stroke:none" /></g><g
             transform="translate(160.2495,76.6885)"
             id="g268"><path
               d="m 0,0 1.636,0 2.647,-7.382 0,7.382 1.671,0 0,-12.188 -1.549,0 -2.734,7.661 0,-7.661 -1.671,0 L 0,0 z"
               id="path270"
               style="fill:#737577;fill-opacity:1;fill-rule:nonzero;stroke:none" /></g><path
             d="m 168.605,76.688 1.706,0 0,-12.188 -1.706,0 0,12.188 z"
             id="path272"
             style="fill:#737577;fill-opacity:1;fill-rule:nonzero;stroke:none" /><g
             transform="translate(172.1392,76.6885)"
             id="g274"><path
               d="M 0,0 1.758,0 3.204,-8.81 4.648,0 l 1.689,0 -2.28,-12.239 -1.776,0 L 0,0 z"
               id="path276"
               style="fill:#737577;fill-opacity:1;fill-rule:nonzero;stroke:none" /></g><g
             transform="translate(180.2339,76.6885)"
             id="g278"><path
               d="m 0,0 4.509,0 0,-1.619 -2.785,0 0,-3.622 2.489,0 0,-1.619 -2.489,0 0,-3.708 2.837,0 0,-1.62 -4.561,0 L 0,0 z"
               id="path280"
               style="fill:#737577;fill-opacity:1;fill-rule:nonzero;stroke:none" /></g><g
             transform="translate(188.8335,70.4902)"
             id="g282"><path
               d="m 0,0 c 1.149,0 1.933,0.696 1.933,2.264 l 0,0.103 c 0,1.672 -0.836,2.229 -1.985,2.229 l -0.244,0 L -0.296,0 0,0 z m -2.02,6.198 1.985,0 c 2.159,0 3.691,-1.201 3.691,-3.796 l 0,-0.122 C 3.656,0.661 2.977,-0.4 2.02,-0.975 l 1.845,-5.014 -1.845,0 -1.637,4.457 c -0.07,0 -0.157,-0.018 -0.226,-0.018 l -0.453,0 0,-4.439 -1.724,0 0,12.187 z"
               id="path284"
               style="fill:#737577;fill-opacity:1;fill-rule:nonzero;stroke:none" /></g><g
             transform="translate(194.2295,64.9365)"
             id="g286"><path
               d="M 0,0 0,1.811 C 0.766,1.34 1.393,1.097 1.985,1.097 c 0.731,0 1.288,0.418 1.288,1.254 l 0,0.034 c 0,0.696 -0.226,1.201 -1.34,2.542 -1.497,1.793 -2.037,2.559 -2.037,3.934 l 0,0.035 c 0,1.793 1.218,2.977 2.785,2.977 0.819,0 1.341,-0.156 1.881,-0.435 l 0,-1.81 C 3.9,10.028 3.43,10.22 2.873,10.22 2.176,10.22 1.619,9.749 1.619,8.983 l 0,-0.035 C 1.619,8.27 1.846,7.904 2.96,6.581 4.579,4.666 4.997,3.848 4.997,2.472 l 0,-0.034 C 4.997,0.644 3.726,-0.558 2.142,-0.558 1.341,-0.558 0.645,-0.331 0,0"
               id="path288"
               style="fill:#737577;fill-opacity:1;fill-rule:nonzero;stroke:none" /></g><path
             d="m 201.158,76.688 1.706,0 0,-12.188 -1.706,0 0,12.188 z"
             id="path290"
             style="fill:#737577;fill-opacity:1;fill-rule:nonzero;stroke:none" /><g
             transform="translate(206.4331,75.0693)"
             id="g292"><path
               d="m 0,0 -1.654,0 0,1.619 4.997,0 0,-1.619 -1.637,0 0,-10.568 -1.706,0 L 0,0 z"
               id="path294"
               style="fill:#737577;fill-opacity:1;fill-rule:nonzero;stroke:none" /></g><g
             transform="translate(213.1177,69.4453)"
             id="g296"><path
               d="m 0,0 -2.351,7.243 1.794,0 1.428,-4.979 1.462,4.979 1.741,0 L 1.724,0 1.724,-4.944 0,-4.944 0,0 z"
               id="path298"
               style="fill:#737577;fill-opacity:1;fill-rule:nonzero;stroke:none" /></g><g
             transform="translate(226.7832,70.333)"
             id="g300"><path
               d="m 0,0 0,0.522 c 0,3.152 -0.575,4.423 -1.393,4.423 -0.818,0 -1.393,-1.271 -1.393,-4.423 l 0,-0.522 c 0,-3.15 0.575,-4.422 1.393,-4.422 C -0.575,-4.422 0,-3.15 0,0 m -4.527,0 0,0.522 c 0,4.11 1.289,5.99 3.134,5.99 1.846,0 3.134,-1.88 3.134,-5.99 L 1.741,0 c 0,-4.108 -1.288,-5.988 -3.134,-5.988 -1.845,0 -3.134,1.88 -3.134,5.988"
               id="path302"
               style="fill:#737577;fill-opacity:1;fill-rule:nonzero;stroke:none" /></g><g
             transform="translate(230.6123,76.6885)"
             id="g304"><path
               d="m 0,0 4.3,0 0,-1.619 -2.576,0 0,-3.709 2.28,0 0,-1.619 -2.28,0 0,-5.241 -1.724,0 L 0,0 z"
               id="path306"
               style="fill:#737577;fill-opacity:1;fill-rule:nonzero;stroke:none" /></g><g
             transform="translate(239.9951,76.6885)"
             id="g308"><path
               d="M 0,0 1.776,0 2.891,-8.427 4.23,0 5.815,0 7.139,-8.427 8.27,0 9.993,0 8.078,-12.239 l -1.775,0 -1.306,8.252 -1.306,-8.252 -1.758,0 L 0,0 z"
               id="path310"
               style="fill:#737577;fill-opacity:1;fill-rule:nonzero;stroke:none" /></g><g
             transform="translate(254.4102,68.7666)"
             id="g312"><path
               d="M 0,0 -0.888,4.893 -1.775,0 0,0 z m -1.775,7.956 1.828,0 2.42,-12.222 -1.724,0 -0.488,2.716 -2.298,0 -0.487,-2.716 -1.672,0 2.421,12.222 z"
               id="path314"
               style="fill:#737577;fill-opacity:1;fill-rule:nonzero;stroke:none" /></g><g
             transform="translate(258.8662,75.0693)"
             id="g316"><path
               d="m 0,0 -1.653,0 0,1.619 4.996,0 0,-1.619 -1.637,0 0,-10.568 -1.706,0 L 0,0 z"
               id="path318"
               style="fill:#737577;fill-opacity:1;fill-rule:nonzero;stroke:none" /></g><g
             transform="translate(264.0713,76.6885)"
             id="g320"><path
               d="m 0,0 4.509,0 0,-1.619 -2.785,0 0,-3.622 2.489,0 0,-1.619 -2.489,0 0,-3.708 2.838,0 0,-1.62 -4.562,0 L 0,0 z"
               id="path322"
               style="fill:#737577;fill-opacity:1;fill-rule:nonzero;stroke:none" /></g><g
             transform="translate(272.6709,70.4902)"
             id="g324"><path
               d="m 0,0 c 1.149,0 1.933,0.696 1.933,2.264 l 0,0.103 c 0,1.672 -0.836,2.229 -1.986,2.229 l -0.243,0 L -0.296,0 0,0 z m -2.02,6.198 1.985,0 c 2.159,0 3.691,-1.201 3.691,-3.796 l 0,-0.122 C 3.656,0.661 2.977,-0.4 2.02,-0.975 l 1.845,-5.014 -1.845,0 -1.637,4.457 c -0.07,0 -0.156,-0.018 -0.227,-0.018 l -0.452,0 0,-4.439 -1.724,0 0,12.187 z"
               id="path326"
               style="fill:#737577;fill-opacity:1;fill-rule:nonzero;stroke:none" /></g><g
             transform="translate(278.3633,76.6885)"
             id="g328"><path
               d="m 0,0 1.724,0 0,-10.568 2.489,0 0,-1.62 -4.213,0 L 0,0 z"
               id="path330"
               style="fill:#737577;fill-opacity:1;fill-rule:nonzero;stroke:none" /></g><g
             transform="translate(288.2168,70.333)"
             id="g332"><path
               d="m 0,0 0,0.522 c 0,3.152 -0.575,4.423 -1.394,4.423 -0.818,0 -1.392,-1.271 -1.392,-4.423 l 0,-0.522 c 0,-3.15 0.574,-4.422 1.392,-4.422 C -0.575,-4.422 0,-3.15 0,0 m -4.527,0 0,0.522 c 0,4.11 1.288,5.99 3.133,5.99 1.846,0 3.134,-1.88 3.134,-5.99 L 1.74,0 c 0,-4.108 -1.288,-5.988 -3.134,-5.988 -1.845,0 -3.133,1.88 -3.133,5.988"
               id="path334"
               style="fill:#737577;fill-opacity:1;fill-rule:nonzero;stroke:none" /></g><g
             transform="translate(296.3281,70.333)"
             id="g336"><path
               d="m 0,0 0,0.522 c 0,3.152 -0.574,4.423 -1.393,4.423 -0.818,0 -1.392,-1.271 -1.392,-4.423 l 0,-0.522 c 0,-3.15 0.574,-4.422 1.392,-4.422 C -0.574,-4.422 0,-3.15 0,0 m -4.526,0 0,0.522 c 0,4.11 1.288,5.99 3.133,5.99 1.846,0 3.134,-1.88 3.134,-5.99 L 1.741,0 c 0,-4.108 -1.288,-5.988 -3.134,-5.988 -1.845,0 -3.133,1.88 -3.133,5.988"
               id="path338"
               style="fill:#737577;fill-opacity:1;fill-rule:nonzero;stroke:none" /></g><g
             transform="translate(306.9399,259.9399)"
             id="g340"><path
               d="M 0,0 -7.613,-4.396 -15.229,0 l 0,8.792 7.616,4.396 L 0,8.792 0,0 z"
               id="path342"
               style="fill:#4d4c4e;fill-opacity:1;fill-rule:nonzero;stroke:none" /></g><g
             transform="translate(246.6606,290.5293)"
             id="g344"><path
               d="M 0,0 -7.615,-4.396 -15.227,0 l 0,8.793 7.612,4.396 L 0,8.793 0,0 z"
               id="path346"
               style="fill:#4d4c4e;fill-opacity:1;fill-rule:nonzero;stroke:none" /></g><g
             transform="translate(315.3599,245.458)"
             id="g348"><path
               d="M 0,0 -7.615,-4.396 -15.23,0 l 0,8.792 7.615,4.396 L 0,8.792 0,0 z"
               id="path350"
               style="fill:#dddedf;fill-opacity:1;fill-rule:nonzero;stroke:none" /></g><g
             transform="translate(385.4263,274.5269)"
             id="g352"><path
               d="M 0,0 -7.615,-4.397 -15.229,0 l 0,8.792 7.614,4.396 L 0,8.792 0,0 z"
               id="path354"
               style="fill:#dddedf;fill-opacity:1;fill-rule:nonzero;stroke:none" /></g><g
             transform="translate(298.1919,245.458)"
             id="g356"><path
               d="M 0,0 -7.613,-4.396 -15.227,0 l 0,8.792 7.614,4.396 L 0,8.792 0,0 z"
               id="path358"
               style="fill:#00aabb;fill-opacity:1;fill-rule:nonzero;stroke:none" /></g><g
             transform="translate(289.6021,259.9399)"
             id="g360"><path
               d="M 0,0 -7.615,-4.396 -15.229,0 l 0,8.792 7.614,4.396 L 0,8.792 0,0 z"
               id="path362"
               style="fill:#7c7d80;fill-opacity:1;fill-rule:nonzero;stroke:none" /></g><g
             transform="translate(271.5767,305.064)"
             id="g364"><path
               d="M 0,0 -7.615,-4.396 -15.229,0 l 0,8.792 7.614,4.396 L 0,8.792 0,0 z"
               id="path366"
               style="fill:#007688;fill-opacity:1;fill-rule:nonzero;stroke:none" /></g><g
             transform="translate(236.981,333.6426)"
             id="g368"><path
               d="M 0,0 -7.613,-4.396 -15.229,0 l 0,8.792 7.616,4.396 L 0,8.792 0,0 z"
               id="path370"
               style="fill:#00aabb;fill-opacity:1;fill-rule:nonzero;stroke:none" /></g><g
             transform="translate(280.854,245.458)"
             id="g372"><path
               d="M 0,0 -7.615,-4.396 -15.229,0 l 0,8.792 7.614,4.396 L 0,8.792 0,0 z"
               id="path374"
               style="fill:#b4b6b8;fill-opacity:1;fill-rule:nonzero;stroke:none" /></g><g
             transform="translate(332.6157,274.5269)"
             id="g376"><path
               d="M 0,0 -7.615,-4.397 -15.23,0 l 0,8.792 7.615,4.396 L 0,8.792 0,0 z"
               id="path378"
               style="fill:#dddedf;fill-opacity:1;fill-rule:nonzero;stroke:none" /></g><g
             transform="translate(315.9263,274.5269)"
             id="g380"><path
               d="M 0,0 -7.613,-4.397 -15.227,0 l 0,8.792 7.614,4.396 L 0,8.792 0,0 z"
               id="path382"
               style="fill:#00aabb;fill-opacity:1;fill-rule:nonzero;stroke:none" /></g><g
             transform="translate(280.9556,274.5269)"
             id="g384"><path
               d="M 0,0 -7.615,-4.397 -15.227,0 l 0,8.792 7.612,4.396 L 0,8.792 0,0 z"
               id="path386"
               style="fill:#00aabb;fill-opacity:1;fill-rule:nonzero;stroke:none" /></g><g
             transform="translate(309.2212,259.9399)"
             id="g388"><path
               d="M 0,0 7.613,-4.396 15.227,0 l 0,8.792 L 7.613,13.188 0,8.792 0,0 z"
               id="path390"
               style="fill:#007688;fill-opacity:1;fill-rule:nonzero;stroke:none" /></g><g
             transform="translate(332.6157,245.2319)"
             id="g392"><path
               d="M 0,0 -7.615,-4.396 -15.23,0 l 0,8.792 7.615,4.396 L 0,8.792 0,0 z"
               id="path394"
               style="fill:#dddedf;fill-opacity:1;fill-rule:nonzero;stroke:none" /></g><g
             transform="translate(308.7407,230.6445)"
             id="g396"><path
               d="M 0,0 7.615,-4.396 15.23,0 15.23,8.793 7.615,13.189 0,8.793 0,0 z"
               id="path398"
               style="fill:#007688;fill-opacity:1;fill-rule:nonzero;stroke:none" /></g><g
             transform="translate(341.686,259.9399)"
             id="g400"><path
               d="M 0,0 -7.613,-4.396 -15.229,0 l 0,8.792 7.616,4.396 L 0,8.792 0,0 z"
               id="path402"
               style="fill:#4d4c4e;fill-opacity:1;fill-rule:nonzero;stroke:none" /></g><g
             transform="translate(353.3403,245.458)"
             id="g404"><path
               d="M 0,0 7.615,-4.396 15.229,0 l 0,8.792 L 7.615,13.188 0,8.792 0,0 z"
               id="path406"
               style="fill:#007688;fill-opacity:1;fill-rule:nonzero;stroke:none" /></g></g></g></g></g></svg>